<?xml version="1.0" encoding="UTF-8"?>
<svg id="Layer_2" data-name="Layer 2" xmlns="http://www.w3.org/2000/svg" viewBox="0 0 463.14 324.22">
  <defs>
    <style>
      .cls-1 {
        fill: #fff;
      }
    </style>
  </defs>
  <g id="Layer_1-2" data-name="Layer 1">
    <g>
      <rect class="cls-1" x="178.13" y="154.21" width="55.35" height="34.23"/>
      <path class="cls-1" d="m246.84,18.03l-10.75,27.05c-8.68-6.49-19.94-10.83-32.08-10.83-24.7,0-36.4,13.75-36.4,40.2v249.76H0V20.82h43.29v265.68h82.7v-98.06h-28.56v-34.23h28.56v-13.85h.08v-53.74h-.08v-12.5C125.99,29.48,152.85,0,201.84,0c17.77,0,33.3,8.94,45,18.03Z"/>
      <path class="cls-1" d="m406.36,166.89c23.84-11.7,40.74-34.67,40.74-67.63,0-48.96-39.01-78.44-108.79-78.44h-83.71l-10.59,28.88v274.52h102.98c76.71,0,116.15-29.91,116.15-81.92,0-40.3-22.55-65.88-56.78-75.41Zm-61.12,122.22h-57.88V55.93h47.05c44.2,0,69.34,16.46,69.34,48.54s-25.14,48.54-69.34,48.54h-36.52v35.11h47.35c48.13,0,74.12,15.6,74.12,50.71s-25.99,50.27-74.12,50.27Z"/>
    </g>
  </g>
</svg>